<?xml version="1.0" encoding="UTF-8" standalone="no"?>
<svg
   xmlns:dc="http://purl.org/dc/elements/1.1/"
   xmlns:cc="http://creativecommons.org/ns#"
   xmlns:rdf="http://www.w3.org/1999/02/22-rdf-syntax-ns#"
   xmlns:svg="http://www.w3.org/2000/svg"
   xmlns="http://www.w3.org/2000/svg"
   xmlns:sodipodi="http://sodipodi.sourceforge.net/DTD/sodipodi-0.dtd"
   xmlns:inkscape="http://www.inkscape.org/namespaces/inkscape"
   height="32px"
   version="1.1"
   viewBox="0 0 32 32"
   width="32px"
   id="svg11"
   sodipodi:docname="javadoc.svg"
   inkscape:version="0.92.0 r15299">
  <metadata
     id="metadata15">
    <rdf:RDF>
      <cc:Work
         rdf:about="">
        <dc:format>image/svg+xml</dc:format>
        <dc:type
           rdf:resource="http://purl.org/dc/dcmitype/StillImage" />
        <dc:title />
      </cc:Work>
    </rdf:RDF>
  </metadata>
  <sodipodi:namedview
     pagecolor="#ffffff"
     bordercolor="#666666"
     borderopacity="1"
     objecttolerance="10"
     gridtolerance="10"
     guidetolerance="10"
     inkscape:pageopacity="0"
     inkscape:pageshadow="2"
     inkscape:window-width="1680"
     inkscape:window-height="975"
     id="namedview13"
     showgrid="false"
     inkscape:zoom="10.429825"
     inkscape:cx="-5.2362384"
     inkscape:cy="15.359934"
     inkscape:window-x="1671"
     inkscape:window-y="-9"
     inkscape:window-maximized="1"
     inkscape:current-layer="svg11" />
  <desc
     id="desc4" />
  <defs
     id="defs6" />
  <path
     style="fill:#929292;fill-rule:evenodd;stroke:none;stroke-width:1"
     d="m 20.864407,12.59322 v -3.0000001 0 l -6,-6.9999996 H 3.8671668 c -1.1060938,0 -2.00276,0.8983383 -2.00276,2.0073299 V 27.58589 c 0,1.108618 0.8909253,2.00733 1.9974218,2.00733 H 18.866985 c 1.103146,0 1.997422,-0.898212 1.997422,-1.990795 v -0.0092 z m -1,15 v 0.0066 c 0,0.548452 -0.447697,0.993398 -0.99996,0.993398 H 3.8643669 c -0.5452513,0 -0.9999602,-0.445681 -0.9999602,-0.995457 V 4.5886773 c 0,-0.5401941 0.4457352,-0.995457 0.9955775,-0.995457 H 13.864407 v 4.994081 c 0,1.1193636 0.894496,2.0059187 1.997913,2.0059187 h 4.002087 v 2 c 0,15.0066 0,0 0,15 z m -5,-23.4999997 v 4.4912152 c 0,0.5571365 0.450651,1.0087844 0.996739,1.0087844 h 3.703212 z"
     id="document-file-pdf"
     inkscape:connector-curvature="0"
     sodipodi:nodetypes="ccccsssssscccsssssscssccccsscc" />
</svg>
